<svg xmlns="http://www.w3.org/2000/svg" width="386.355" height="619.5" viewBox="0 0 386.355 619.5">
  <path id="Union_16" data-name="Union 16" d="M44.2,619.5A43.5,43.5,0,0,1,.7,576V182.615s0-.658,0-1.888V58.264Q.7,57.123.76,56C.768,37.358.774,23.328.774,20.3.774,9.495,6.293,0,15.421,0H68.479c2.219,0,3.352.678,5.895,3.536.934,1.05,4.457,5.728,8.54,11.228H304.841c4.084-5.5,7.606-10.179,8.54-11.228C315.924.678,317.057,0,319.276,0h53.06c9.127,0,14.646,9.495,14.646,20.3,0,3.02.006,17.025.014,35.64q.061,1.153.061,2.319V576a43.5,43.5,0,0,1-43.5,43.5Z" transform="translate(-0.701)" fill="#ff6b6b"/>
</svg>
