<svg xmlns="http://www.w3.org/2000/svg" xmlns:xlink="http://www.w3.org/1999/xlink" width="47.697" height="34.256" viewBox="0 0 47.697 34.256">
  <defs>
    <linearGradient id="linear-gradient" x1="0.5" x2="0.5" y2="1" gradientUnits="objectBoundingBox">
      <stop offset="0" stop-color="#4a0d2e"/>
      <stop offset="1" stop-color="#130020"/>
    </linearGradient>
  </defs>
  <g id="bg_hp_enemy" transform="translate(-808.303 -573.716)">
    <path id="Path_19" data-name="Path 19" d="M51.7,0H20.256A6.946,6.946,0,0,0,13.92,3.921C12.827,6.2,4,25.069,4,25.069H51.7Z" transform="translate(804.303 573.716)" fill="url(#linear-gradient)"/>
    <path id="Union_14" data-name="Union 14" d="M-21683.818-4157.449a56.342,56.342,0,0,1-9.186-7.477c-3.027-3.174-4.564-6.05-4.564-8.543a9.251,9.251,0,0,1,2.25-6.213,7.84,7.84,0,0,1,5.936-2.6c1.922,0,3.734.9,5.842,2.919,2.07-1.96,4.047-2.919,6.033-2.919a7.613,7.613,0,0,1,5.555,2.26,9.011,9.011,0,0,1,2.439,6.567c-.037,2.456-1.584,5.314-4.59,8.495a54.812,54.812,0,0,1-9.16,7.515l-.277.185Z" transform="translate(22518.488 4765.235)" fill="#982727" opacity="0.45"/>
  </g>
</svg>
