<svg xmlns="http://www.w3.org/2000/svg" xmlns:xlink="http://www.w3.org/1999/xlink" width="47.697" height="34.257" viewBox="0 0 47.697 34.257">
  <defs>
    <linearGradient id="linear-gradient" x1="0.5" x2="0.5" y2="1" gradientUnits="objectBoundingBox">
      <stop offset="0" stop-color="#30055b"/>
      <stop offset="1" stop-color="#160c21"/>
    </linearGradient>
  </defs>
  <g id="Group_82" data-name="Group 82" transform="translate(-808.303 -573.716)">
    <path id="Path_19" data-name="Path 19" d="M51.7,0H20.256A6.946,6.946,0,0,0,13.92,3.921C12.827,6.2,4,25.069,4,25.069H51.7Z" transform="translate(804.303 573.716)" fill="url(#linear-gradient)"/>
    <path id="Path_20" data-name="Path 20" d="M9.2,2.506c-4.6,0-7.683,3.721-7.683,8.315,0,5.214,7.285,11.444,13.526,15.6,6.243-4.16,13.443-10.49,13.528-15.6.076-4.595-2.9-8.315-7.5-8.315-1.961,0-3.951,1.037-6.032,3.116C12.958,3.543,11.158,2.506,9.2,2.506Z" transform="translate(819.906 580.946)" fill="#7543a8" stroke="#7543a8" stroke-width="1" opacity="0.45"/>
  </g>
</svg>
