<svg xmlns="http://www.w3.org/2000/svg" xmlns:xlink="http://www.w3.org/1999/xlink" width="47.697" height="32.685" viewBox="0 0 47.697 32.685">
  <defs>
    <linearGradient id="linear-gradient" x1="0.5" x2="0.5" y2="1" gradientUnits="objectBoundingBox">
      <stop offset="0" stop-color="#4a0d2e"/>
      <stop offset="1" stop-color="#130020"/>
    </linearGradient>
  </defs>
  <g id="bg_atk_enemy" transform="translate(-721.971 -573.716)">
    <path id="Path_18" data-name="Path 18" d="M4,0H35.441a6.946,6.946,0,0,1,6.336,3.921C42.87,6.2,51.7,25.069,51.7,25.069H4Z" transform="translate(717.971 573.716)" fill="url(#linear-gradient)"/>
    <g id="Group_80" data-name="Group 80" transform="translate(728.691 578.183)" opacity="0.45">
      <path id="Path_16" data-name="Path 16" d="M10.4,174.434l4.145-4.145,2.505,2.505-4.332,3.4Z" transform="translate(-6.722 -152.115)" fill="#982727"/>
      <path id="Path_13" data-name="Path 13" d="M1.049,22.167A3.537,3.537,0,0,1,3.28,21.152L6.5,17.92l-4.084-4.1,3.176-4.3,2.82,2.141L18.811,0l8.946.457.46,8.946L16.549,19.81l2.143,2.82L14.383,25.8,10.3,21.716,7.065,24.928a3.537,3.537,0,1,1-6.016-2.761ZM26.485,8.681,26.146,2.07l-6.611-.338L9.758,12.691l3.274,2.493,2.493,3.272ZM11.492,20.526l.812.809,2.256,2.256L16.3,22.28l-1.021-1.342-1.027-1.351-2.431-3.2L8.63,13.96,7.279,12.934,5.937,11.91,4.645,13.664ZM7.7,19.116,5.251,21.569a3.449,3.449,0,0,1,.8.6,3.542,3.542,0,0,1,.6.8L9.1,20.512ZM2.248,25.972a1.847,1.847,0,0,0,2.609,0h0a1.847,1.847,0,1,0-2.609,0Z" transform="translate(0)" fill="#982727"/>
      <path id="Path_15" data-name="Path 15" d="M15.745,165.081l9.9-12.259,8.016.566v7.733L21.78,171.211l-2.64-3.489Z" transform="translate(-6.722 -152.115)" fill="#982727"/>
    </g>
  </g>
</svg>
