<svg xmlns="http://www.w3.org/2000/svg" width="27.579" height="34.474" viewBox="0 0 27.579 34.474">
  <g id="icon_pause" transform="translate(0 0)">
    <path id="Path_26" data-name="Path 26" d="M16.746,41.224H9.873A.867.867,0,0,1,9,40.362V7.612a.867.867,0,0,1,.873-.862h6.873a.867.867,0,0,1,.873.862v32.75A.867.867,0,0,1,16.746,41.224Z" transform="translate(-9 -6.75)" fill="#0ab0ec"/>
    <path id="Path_27" data-name="Path 27" d="M29.121,41.224H22.248a.867.867,0,0,1-.873-.862V7.612a.867.867,0,0,1,.873-.862h6.873a.867.867,0,0,1,.873.862v32.75A.867.867,0,0,1,29.121,41.224Z" transform="translate(-2.414 -6.75)" fill="#0ab0ec"/>
  </g>
</svg>
