<svg xmlns="http://www.w3.org/2000/svg" width="124" height="124" viewBox="0 0 124 124">
  <g id="Group_247" data-name="Group 247" transform="translate(-1241.289 -550.536)">
    <circle id="Ellipse_15" data-name="Ellipse 15" cx="62" cy="62" r="62" transform="translate(1241.289 550.536)" fill="#fff"/>
    <circle id="Ellipse_5" data-name="Ellipse 5" cx="59" cy="59" r="59" transform="translate(1244.289 553.536)" fill="#0c0c4f"/>
    <g id="Group_239" data-name="Group 239" transform="translate(1255.135 564.372)">
      <path id="Path_9" data-name="Path 9" d="M.162,48.141A47.88,47.88,0,1,0,48.041.262,47.878,47.878,0,0,0,.162,48.141Z" transform="translate(-0.162 -0.262)" fill="#0c0c4f" fill-rule="evenodd"/>
      <path id="Path_10" data-name="Path 10" d="M39.286,51.44l1.182-3.651A2.385,2.385,0,0,1,42.04,46.24l3.669-1.128a.543.543,0,0,0,.008-1.035l-3.653-1.182a2.391,2.391,0,0,1-1.548-1.572l-1.127-3.669a.543.543,0,0,0-1.035-.007L37.172,41.3A2.391,2.391,0,0,1,35.6,42.846l-3.669,1.127a.542.542,0,0,0-.008,1.035l3.653,1.182a2.393,2.393,0,0,1,1.548,1.573l1.127,3.668A.542.542,0,0,0,39.286,51.44Z" transform="translate(-12.525 -14.84)" fill="#fafafa" fill-rule="evenodd"/>
      <path id="Path_11" data-name="Path 11" d="M90.475,55a10.693,10.693,0,0,0-6.169-3.035,21.2,21.2,0,0,0-7.023.065A33.479,33.479,0,0,0,64.8,57.087a47.044,47.044,0,0,0-5.2,3.864c-.809.691-1.547,1.426-2.316,2.15l-2.1,2.09a80.953,80.953,0,0,1-6.708,6.359,30.545,30.545,0,0,1-6.241,4.1,16.824,16.824,0,0,1-6.971,1.608,37.783,37.783,0,0,1-9.592-1.233c-3.539-.825-7.255-2-11.408-3.013A34.2,34.2,0,0,0,20.7,83.837a30.272,30.272,0,0,0,10.92,8.012,26.44,26.44,0,0,0,15.377,1.6,33.373,33.373,0,0,0,13.657-6.284A48.693,48.693,0,0,0,70,77.678c.707-.934,1.081-1.456,1.592-2.186L73.007,73.4c.982-1.3,1.877-2.77,2.85-4.054a92.462,92.462,0,0,1,5.97-7.847,33.387,33.387,0,0,1,3.627-3.608,19.152,19.152,0,0,1,2.237-1.61A10.6,10.6,0,0,1,90.475,55Z" transform="translate(-5.717 -20.526)" fill="#ec796b" fill-rule="evenodd"/>
      <path id="Path_12" data-name="Path 12" d="M90.475,48.562A21.465,21.465,0,0,0,66.6,35.753a24.851,24.851,0,0,0-7.725,2.909,32.314,32.314,0,0,0-6.2,4.731c-.9.877-1.714,1.792-2.523,2.711l-2.1,2.677-3.242,4.308c-4.134,5.543-8.585,12.04-15.89,13.965-7.171,1.89-10.282.216-14.658-.475A23.673,23.673,0,0,0,17.4,72.417a23.19,23.19,0,0,0,4.813,4.942,24.921,24.921,0,0,0,3.16,1.967,21.857,21.857,0,0,0,3.69,1.432,21.441,21.441,0,0,0,8.412.582,25.306,25.306,0,0,0,7.963-2.485,33.529,33.529,0,0,0,6.36-4.166,50.947,50.947,0,0,0,9.039-9.933c1.227-1.722,2.341-3.476,3.371-5.23l1.212-2.089c.371-.611.746-1.225,1.126-1.8a22.078,22.078,0,0,1,4.863-5.526A13.7,13.7,0,0,1,79.062,47.4,39.876,39.876,0,0,1,90.475,48.562Z" transform="translate(-5.717 -14.088)" fill="#fafafa" fill-rule="evenodd"/>
      <path id="Path_13" data-name="Path 13" d="M110.243,109.814a5.453,5.453,0,1,0,5.455-5.455A5.456,5.456,0,0,0,110.243,109.814Z" transform="translate(-43.526 -41.268)" fill="#ec796b" fill-rule="evenodd"/>
    </g>
  </g>
</svg>
